<?xml version="1.0" encoding="UTF-8"?>
<svg width="38px" height="5px" viewBox="0 0 38 5" version="1.1" xmlns="http://www.w3.org/2000/svg" xmlns:xlink="http://www.w3.org/1999/xlink">
    <!-- Generator: Sketch 47.1 (45422) - http://www.bohemiancoding.com/sketch -->
    <title>MSP-反白 Copy</title>
    <desc>Created with Sketch.</desc>
    <defs>
        <linearGradient x1="7.28762649%" y1="23.4959584%" x2="72.8895899%" y2="85.1434359%" id="linearGradient-1">
            <stop stop-color="#43EEF8" offset="0%"></stop>
            <stop stop-color="#1776EB" offset="100%"></stop>
        </linearGradient>
        <linearGradient x1="100%" y1="25.769097%" x2="0%" y2="74.8132049%" id="linearGradient-2">
            <stop stop-color="#39B1F7" offset="0%"></stop>
            <stop stop-color="#0848BB" offset="100%"></stop>
        </linearGradient>
    </defs>
    <g id="Page-1" stroke="none" stroke-width="1" fill="none" fill-rule="evenodd">
        <g id="Artboard-Copy-2" transform="translate(-88.000000, -559.000000)">
            <g id="MSP-反白-Copy" transform="translate(88.000000, 559.000000)">
                <polygon id="Combined-Shape-Copy-2" fill="url(#linearGradient-1)" points="4.34003683 3.74342567 4.3409777 3.74288484 4.3409777 1.24762828 2.17048885 0 0 1.24762828 1.41074122e-15 3.74288484 2.17048885 4.99051312 3.44670777 4.25692409 2.73393555 3.89093872 2.16462736 4.21818527 0.660868576 3.35380304 0.660868576 1.62503859 2.16462736 0.76065636 3.66838615 1.62503859 3.66838615 3.35380304 3.66765895 3.35422105 4.34003683 3.74342567"></polygon>
                <polygon id="Combined-Shape-Copy-3" fill="url(#linearGradient-2)" points="2.65041127 1.0374266 2.28472511 1.24762828 2.28472511 3.74288484 4.45521396 4.99051312 6.62570281 3.74288484 6.62570281 1.24762828 4.45521396 0 3.58777752 0.498614969 4.23620558 0.883176264 4.44935247 0.76065636 5.95311126 1.62503859 5.95311126 3.35380304 4.44935247 4.21818527 2.94559368 3.35380304 2.94559368 1.62503859 3.3085001 1.41643475"></polygon>
                <path d="M10.4354973,1.29632085 L10.2000075,1.68959392 C10.0188293,1.54177412 9.79562683,1.45454545 9.55421209,1.45454545 C8.94830552,1.45454545 8.4571212,2.00401417 8.4571212,2.68181818 C8.4571212,3.35962219 8.94830552,3.90909091 9.55421209,3.90909091 C9.87168715,3.90909091 10.1576662,3.75823897 10.3579949,3.51711542 L10.67751,3.84415261 C10.3945513,4.16426573 9.99589791,4.36363636 9.55421209,4.36363636 C8.69584445,4.36363636 8,3.61066072 8,2.68181818 C8,1.75297565 8.69584445,1 9.55421209,1 C9.88144311,1 10.1850543,1.10943172 10.4354973,1.29632085 Z M14.5349398,4.36363636 C13.732907,4.36363636 13.0827309,3.61066072 13.0827309,2.68181818 C13.0827309,1.75297565 13.732907,1 14.5349398,1 C15.3369726,1 15.9871486,1.75297565 15.9871486,2.68181818 C15.9871486,3.61066072 15.3369726,4.36363636 14.5349398,4.36363636 Z M14.5349398,3.90909091 C15.0863373,3.90909091 15.5333333,3.35962219 15.5333333,2.68181818 C15.5333333,2.00401417 15.0863373,1.45454545 14.5349398,1.45454545 C13.9835422,1.45454545 13.5365462,2.00401417 13.5365462,2.68181818 C13.5365462,3.35962219 13.9835422,3.90909091 14.5349398,3.90909091 Z M16.4409639,3.18181818 L16.8947791,3.18181818 C16.8947791,3.58347982 17.2198671,3.90909091 17.6208835,3.90909091 C18.0218999,3.90909091 18.346988,3.58347982 18.346988,3.18181818 L18.8008032,3.18181818 C18.8008032,3.83451834 18.2725352,4.36363636 17.6208835,4.36363636 C16.9692319,4.36363636 16.4409639,3.83451834 16.4409639,3.18181818 Z M16.4409639,1 L16.8947791,1 L16.8947791,3.18181818 L16.4409639,3.18181818 L16.4409639,1 Z M18.346988,1 L18.8008032,1 L18.8008032,3.18181818 L18.346988,3.18181818 L18.346988,1 Z M11.5831668,3.91038313 L11.5831668,3.91038313 L13.0373494,3.91038313 L13.0373494,4.36363636 L11.3997204,4.36363636 L11.1286007,4.37781148 L11.1287922,1.00954903 L11.583122,1.00954903 L11.5831668,3.91038313 Z M19.8879861,3.91038313 L19.8879861,3.91038313 L21.3421687,3.91038313 L21.3421687,4.36363636 L19.7045397,4.36363636 L19.43342,4.37781148 L19.4336115,1.00954903 L19.8879413,1.00954903 L19.8879861,3.91038313 Z M33.1144094,3.55077124 C33.6744816,4.06719679 34.1798682,3.95474139 34.3635092,3.82413979 C34.5471501,3.6935382 34.9161519,3.20935656 34.0109622,2.92183389 C33.1057726,2.63431121 33.0132795,2.24395745 32.9864866,2.11271068 C32.9596938,1.9814639 32.8921687,1.24417414 33.6744816,1.03915173 C34.2413468,0.925207374 34.6793578,1.05997456 34.9885146,1.4434533 L34.7149324,1.72948687 C34.511287,1.55014496 34.2881308,1.45480043 34.0454637,1.4434533 C33.4692781,1.40639525 33.3751843,1.83151808 33.5015186,2.03500744 C33.623777,2.26159018 33.9524952,2.35578468 34.5079842,2.57917484 C35.0880405,2.82491329 35.1083607,3.23839797 35.0880405,3.49435991 C35.0677203,3.75032184 34.9014376,4.29610546 34.1600536,4.35692704 C33.6657976,4.39747475 33.2354719,4.25423535 32.8690763,3.92720882 C32.9473498,3.79525385 33.0291275,3.66977465 33.1144094,3.55077124 Z M21.7959839,1 L22.2497992,1 L22.2497992,4.36363636 L21.7959839,4.36363636 L21.7959839,1 Z M24.8815817,4.36304528 L23.3842569,1.85208691 L23.3842569,4.36363636 L22.9305221,4.36363636 L22.9305221,1 L23.3842569,1 L23.3842569,1.00100987 L24.8815817,3.58090576 L24.8815817,1 L25.3353165,1 L25.3353165,4.36269239 L25.3358822,4.36366718 L24.8819347,4.36363722 L24.8815817,4.36363636 L24.8815817,4.36304528 Z M26.5812788,3.19640954 L26.4209513,3.38778783 L26.4209513,4.36363636 L25.9710843,4.36363636 L25.9710843,3.23731875 L25.9644316,3.23172743 L25.9710843,3.2237862 L25.9710843,1 L26.4209513,1 L26.4209513,2.686793 L27.4937616,1.40621029 L27.8383797,1.69584447 L26.929132,2.78118722 L27.7790632,4.36369267 L27.2254582,4.361305 L26.5812788,3.19640954 Z M31.9127027,2.27730105 L31.2045687,4.36363636 L30.6453236,4.36363636 L29.9226387,2.23443035 L29.9226387,4.36362438 L29.4654618,4.36362438 L29.4654618,1 L29.9226387,1 L29.9792872,1.00001199 L30.9249462,3.75192639 L31.8706051,1.00001199 L31.9127027,1.00001199 L32.3698795,1 L32.3698795,4.36362438 L31.9127027,4.36362438 L31.9127027,2.27730105 Z" id="Combined-Shape" fill="#FFFFFF"></path>
                <path d="M36.1365462,3 L36.1365462,4.36363636 L35.6827309,4.36363636 L35.6827309,1 L35.8756024,1 L35.7961847,1 L36.726506,1 C37.2779036,1 37.7248996,1.44771525 37.7248996,2 C37.7248996,2.55228475 37.2779036,3 36.726506,3 L36.1365462,3 Z M36.1365462,2.54545455 L36.726506,2.54545455 C37.0272683,2.54545455 37.2710843,2.30124623 37.2710843,2 C37.2710843,1.69875377 37.0272683,1.45454545 36.726506,1.45454545 L36.1365462,1.45454545 L36.1365462,2.54545455 L36.1365462,2.54545455 Z" id="Combined-Shape" fill="#FFFFFF"></path>
            </g>
        </g>
    </g>
</svg>