<?xml version="1.0" encoding="UTF-8"?>
<svg width="41px" height="5px" viewBox="0 0 41 5" version="1.1" xmlns="http://www.w3.org/2000/svg" xmlns:xlink="http://www.w3.org/1999/xlink">
    <!-- Generator: Sketch 47.1 (45422) - http://www.bohemiancoding.com/sketch -->
    <title>MSP Copy</title>
    <desc>Created with Sketch.</desc>
    <defs>
        <linearGradient x1="7.28762649%" y1="23.4959584%" x2="72.8895899%" y2="85.1434359%" id="linearGradient-1">
            <stop stop-color="#43EEF8" offset="0%"></stop>
            <stop stop-color="#1776EB" offset="100%"></stop>
        </linearGradient>
        <linearGradient x1="100%" y1="25.769097%" x2="0%" y2="74.8132049%" id="linearGradient-2">
            <stop stop-color="#39B1F7" offset="0%"></stop>
            <stop stop-color="#0848BB" offset="100%"></stop>
        </linearGradient>
    </defs>
    <g id="Page-1" stroke="none" stroke-width="1" fill="none" fill-rule="evenodd">
        <g id="Artboard-Copy-2" transform="translate(-88.000000, -650.000000)">
            <g id="MSP-Copy" transform="translate(88.000000, 650.000000)">
                <polygon id="Combined-Shape-Copy-2" fill="url(#linearGradient-1)" points="4.34701999 3.74342567 4.34796238 3.74288484 4.34796238 1.24762828 2.17398119 0 0 1.24762828 1.41301112e-15 3.74288484 2.17398119 4.99051312 3.45225356 4.25692409 2.73833448 3.89093872 2.16811027 4.21818527 0.66193192 3.35380304 0.66193192 1.62503859 2.16811027 0.76065636 3.67428862 1.62503859 3.67428862 3.35380304 3.67356025 3.35422105 4.34701999 3.74342567"></polygon>
                <polygon id="Combined-Shape-Copy-3" fill="url(#linearGradient-2)" points="2.65467581 1.0374266 2.28840125 1.24762828 2.28840125 3.74288484 4.46238245 4.99051312 6.63636364 3.74288484 6.63636364 1.24762828 4.46238245 0 3.59355029 0.498614969 4.24302168 0.883176264 4.45651153 0.76065636 5.96268988 1.62503859 5.96268988 3.35380304 4.45651153 4.21818527 2.95033317 3.35380304 2.95033317 1.62503859 3.31382351 1.41643475"></polygon>
                <path d="M10.3939614,1.11450266 L10.1580928,1.50777574 C9.97662309,1.35995594 9.75306147,1.27272727 9.51125828,1.27272727 C8.90437681,1.27272727 8.41240217,1.82219599 8.41240217,2.5 C8.41240217,3.17780401 8.90437681,3.72727273 9.51125828,3.72727273 C9.82924417,3.72727273 10.1156834,3.57642079 10.3163344,3.33529724 L10.6363636,3.66233443 C10.3529497,3.98244755 9.95365479,4.18181818 9.51125828,4.18181818 C8.65150953,4.18181818 7.95454545,3.42884253 7.95454545,2.5 C7.95454545,1.57115747 8.65150953,0.818181818 9.51125828,0.818181818 C9.83901583,0.818181818 10.1431155,0.927613535 10.3939614,1.11450266 Z M14.5,4.18181818 C13.6966767,4.18181818 13.0454545,3.42884253 13.0454545,2.5 C13.0454545,1.57115747 13.6966767,0.818181818 14.5,0.818181818 C15.3033233,0.818181818 15.9545455,1.57115747 15.9545455,2.5 C15.9545455,3.42884253 15.3033233,4.18181818 14.5,4.18181818 Z M14.5,3.72727273 C15.0522847,3.72727273 15.5,3.17780401 15.5,2.5 C15.5,1.82219599 15.0522847,1.27272727 14.5,1.27272727 C13.9477153,1.27272727 13.5,1.82219599 13.5,2.5 C13.5,3.17780401 13.9477153,3.72727273 14.5,3.72727273 Z M16.4090909,3 L16.8636364,3 C16.8636364,3.40166164 17.1892475,3.72727273 17.5909091,3.72727273 C17.9925707,3.72727273 18.3181818,3.40166164 18.3181818,3 L18.7727273,3 C18.7727273,3.65270016 18.2436092,4.18181818 17.5909091,4.18181818 C16.9382089,4.18181818 16.4090909,3.65270016 16.4090909,3 Z M16.4090909,0.818181818 L16.8636364,0.818181818 L16.8636364,3 L16.4090909,3 L16.4090909,0.818181818 Z M18.3181818,0.818181818 L18.7727273,0.818181818 L18.7727273,3 L18.3181818,3 L18.3181818,0.818181818 Z M11.5434776,3.72856494 L11.5434776,3.72856494 L13,3.72856494 L13,4.18181818 L11.359736,4.18181818 L11.0881801,4.19599329 L11.0883719,0.827730846 L11.5434327,0.827730846 L11.5434776,3.72856494 Z M22.7252509,0.827730846 L22.7252958,3.72856494 L24.1818182,3.72856494 L24.1818182,4.18181818 L22.5415542,4.18181818 L22.2699983,4.19599329 L22.2701901,0.827730846 L22.7252509,0.827730846 Z M35.9730006,3.36895305 C36.5339739,3.8853786 37.0401737,3.77292321 37.2241102,3.64232161 C37.4080466,3.51172002 37.7776421,3.02753838 36.870996,2.7400157 C35.9643499,2.45249303 35.8717079,2.06213927 35.844872,1.9308925 C35.818036,1.79964572 35.7504023,1.06235596 36.5339739,0.857333547 C37.1017512,0.743389192 37.540467,0.878156383 37.8501213,1.26163512 L37.5760988,1.54766869 C37.3721258,1.36832678 37.1486105,1.27298225 36.905553,1.26163512 C36.3284402,1.22457707 36.2341951,1.6496999 36.3607326,1.85318926 C36.4831877,2.079772 36.8124349,2.1739665 37.3688176,2.39735666 C37.9498073,2.64309511 37.9701602,3.05657979 37.9498073,3.31254173 C37.9294544,3.56850366 37.7629041,4.11428728 37.0203273,4.17510885 C36.525276,4.21565657 36.0942578,4.07241717 35.7272727,3.74539064 C35.8056722,3.61343566 35.8875815,3.48795647 35.9730006,3.36895305 Z M24.6363636,0.818181818 L25.0909091,0.818181818 L25.0909091,4.18181818 L24.6363636,4.18181818 L24.6363636,0.818181818 Z M27.7269262,4.1812271 L26.2271921,1.67026872 L26.2271921,4.18181818 L25.7727273,4.18181818 L25.7727273,0.818181818 L26.2271921,0.818181818 L26.2271921,0.819191685 L27.7269262,3.39908758 L27.7269262,0.818181818 L28.181391,0.818181818 L28.181391,4.18087421 L28.1819577,4.181849 L27.7272797,4.18181904 L27.7269262,4.18181818 L27.7269262,4.1812271 Z M29.4293581,3.01459136 L29.2687726,3.20596965 L29.2687726,4.18181818 L28.8181818,4.18181818 L28.8181818,3.05550057 L28.8115183,3.04990924 L28.8181818,3.04196801 L28.8181818,0.818181818 L29.2687726,0.818181818 L29.2687726,2.50497482 L30.3433091,1.22439211 L30.6884817,1.51402628 L29.777771,2.59936903 L30.6290697,4.18187449 L30.074574,4.17948682 L29.4293581,3.01459136 Z M34.7693603,2.09548287 L34.0600869,4.18181818 L33.499942,4.18181818 L32.7760943,2.05261217 L32.7760943,4.18180619 L32.3181818,4.18180619 L32.3181818,0.818181818 L32.7760943,0.818181818 L32.832834,0.818193806 L33.7800145,3.57010821 L34.727195,0.818193806 L34.7693603,0.818193806 L35.2272727,0.818181818 L35.2272727,4.18180619 L34.7693603,4.18180619 L34.7693603,2.09548287 Z" id="Combined-Shape" fill="#FFFFFF"></path>
                <path d="M19.9090909,4.17781397 L19.9090909,4.18181818 L19.4545455,4.18181818 L19.4545455,0.818181818 L19.9090909,0.818181818 L19.9090909,0.822185949 C19.9477361,0.819531113 19.9867402,0.818181818 20.0260594,0.818181818 C20.9549019,0.818181818 21.7078776,1.57115747 21.7078776,2.5 C21.7078776,3.42884253 20.9549019,4.18181818 20.0260594,4.18181818 C19.9867402,4.18181818 19.9477361,4.18046889 19.9090909,4.17781407 L19.9090909,4.17781397 Z M19.9090909,1.27822888 L19.9090909,3.72177116 C19.9475903,3.72541119 19.9866074,3.72727273 20.0260594,3.72727273 C20.7038634,3.72727273 21.2533321,3.17780401 21.2533321,2.5 C21.2533321,1.82219599 20.7038634,1.27272727 20.0260594,1.27272727 C19.9866074,1.27272727 19.9475902,1.27458881 19.9090909,1.27822885 L19.9090909,1.27822888 Z" id="Combined-Shape" fill="#FFFFFF"></path>
                <path d="M39,2.81818182 L39,4.18181818 L38.5454545,4.18181818 L38.5454545,0.818181818 L38.7386364,0.818181818 L38.6590909,0.818181818 L39.5909091,0.818181818 C40.1431938,0.818181818 40.5909091,1.26589707 40.5909091,1.81818182 C40.5909091,2.37046657 40.1431938,2.81818182 39.5909091,2.81818182 L39,2.81818182 Z M39,2.36363636 L39.5909091,2.36363636 C39.8921553,2.36363636 40.1363636,2.11942805 40.1363636,1.81818182 C40.1363636,1.51693559 39.8921553,1.27272727 39.5909091,1.27272727 L39,1.27272727 L39,2.36363636 L39,2.36363636 Z" id="Combined-Shape" fill="#FFFFFF"></path>
            </g>
        </g>
    </g>
</svg>