<?xml version="1.0" encoding="UTF-8"?>
<svg width="226px" height="30px" viewBox="0 0 226 30" version="1.1" xmlns="http://www.w3.org/2000/svg" xmlns:xlink="http://www.w3.org/1999/xlink">
    <!-- Generator: Sketch 47.1 (45422) - http://www.bohemiancoding.com/sketch -->
    <title>MSP-反白</title>
    <desc>Created with Sketch.</desc>
    <defs>
        <linearGradient x1="7.28762649%" y1="23.4959584%" x2="72.8895899%" y2="85.1434359%" id="linearGradient-1">
            <stop stop-color="#43EEF8" offset="0%"></stop>
            <stop stop-color="#1776EB" offset="100%"></stop>
        </linearGradient>
        <linearGradient x1="100%" y1="25.769097%" x2="0%" y2="74.8132049%" id="linearGradient-2">
            <stop stop-color="#39B1F7" offset="0%"></stop>
            <stop stop-color="#0848BB" offset="100%"></stop>
        </linearGradient>
    </defs>
    <g id="Page-1" stroke="none" stroke-width="1" fill="none" fill-rule="evenodd">
        <g id="Artboard-Copy-2" transform="translate(-88.000000, -512.000000)">
            <g id="MSP-反白" transform="translate(88.000000, 512.000000)">
                <polygon id="Combined-Shape-Copy-2" fill="url(#linearGradient-1)" points="26.040221 22.460554 26.0458662 22.457309 26.0458662 7.48576967 13.0229331 0 0 7.48576967 8.46444735e-15 22.457309 13.0229331 29.9430787 20.6802466 25.5415445 16.4036133 23.3456323 12.9877642 25.3091116 3.96521146 20.1228183 3.96521146 9.75023152 12.9877642 4.56393816 22.0103169 9.75023152 22.0103169 20.1228183 22.0059537 20.1253263 26.040221 22.460554"></polygon>
                <polygon id="Combined-Shape-Copy-3" fill="url(#linearGradient-2)" points="15.9024676 6.22455962 13.7083506 7.48576967 13.7083506 22.457309 26.7312838 29.9430787 39.7542169 22.457309 39.7542169 7.48576967 26.7312838 0 21.5266651 2.99168981 25.4172335 5.29905758 26.6961148 4.56393816 35.7186676 9.75023152 35.7186676 20.1228183 26.6961148 25.3091116 17.6735621 20.1228183 17.6735621 9.75023152 19.8510006 8.49860848"></polygon>
                <path d="M62.2635859,6.68701599 L60.8506477,9.04665443 C59.7635783,8.15973565 58.4243634,7.63636364 56.9758749,7.63636364 C53.3404355,7.63636364 50.3933296,10.9331759 50.3933296,15 C50.3933296,19.0668241 53.3404355,22.3636364 56.9758749,22.3636364 C58.8807253,22.3636364 60.5965996,21.4585247 61.7985719,20.0117834 L63.7156627,21.9740066 C62.0179105,23.8946853 59.6259899,25.0909091 56.9758749,25.0909091 C51.8256691,25.0909091 47.6506024,20.5730552 47.6506024,15 C47.6506024,9.4269448 51.8256691,4.90909091 56.9758749,4.90909091 C58.9392611,4.90909091 60.760928,5.56568121 62.2635859,6.68701599 Z M86.860241,25.0909091 C82.0480442,25.0909091 78.146988,20.5730552 78.146988,15 C78.146988,9.4269448 82.0480442,4.90909091 86.860241,4.90909091 C91.6724377,4.90909091 95.573494,9.4269448 95.573494,15 C95.573494,20.5730552 91.6724377,25.0909091 86.860241,25.0909091 Z M86.860241,22.3636364 C90.1686262,22.3636364 92.8506024,19.0668241 92.8506024,15 C92.8506024,10.9331759 90.1686262,7.63636364 86.860241,7.63636364 C83.5518557,7.63636364 80.8698795,10.9331759 80.8698795,15 C80.8698795,19.0668241 83.5518557,22.3636364 86.860241,22.3636364 Z M98.2963855,18 L101.019277,18 C101.019277,20.4099698 102.969805,22.3636364 105.375904,22.3636364 C107.782002,22.3636364 109.73253,20.4099698 109.73253,18 L112.455422,18 C112.455422,21.916201 109.285813,25.0909091 105.375904,25.0909091 C101.465994,25.0909091 98.2963855,21.916201 98.2963855,18 Z M98.2963855,4.90909091 L101.019277,4.90909091 L101.019277,18 L98.2963855,18 L98.2963855,4.90909091 Z M109.73253,4.90909091 L112.455422,4.90909091 L112.455422,18 L109.73253,18 L109.73253,4.90909091 Z M69.1496032,22.3713897 L69.1496032,22.3713897 L77.8746988,22.3713897 L77.8746988,25.0909091 L68.0489248,25.0909091 L66.4222068,25.1759598 L66.4233556,4.96638508 L69.1493344,4.96638508 L69.1496032,22.3713897 Z M118.978519,22.3713897 L118.978519,22.3713897 L127.703614,22.3713897 L127.703614,25.0909091 L117.87784,25.0909091 L116.251122,25.1759598 L116.252271,4.96638508 L118.97825,4.96638508 L118.978519,22.3713897 Z M198.337059,20.2137183 C201.697492,23.3122716 204.729812,22.6375392 205.831657,21.8539297 C206.933503,21.0703201 209.147514,18.1652303 203.716376,16.4400942 C198.285238,14.7149582 197.730279,12.3728356 197.569522,11.585355 C197.408765,10.7978743 197.003615,6.37413576 201.697492,5.14400128 C205.098683,4.46033515 207.726749,5.2689383 209.58169,7.56981072 L207.940197,9.28601216 C206.718325,8.20996065 205.379387,7.63789351 203.923385,7.56981072 C200.466271,7.34746241 199.901708,9.89819939 200.659714,11.1191356 C201.393264,12.478632 203.365574,13.043799 206.698507,14.38414 C210.178845,15.8585706 210.300767,18.3394788 210.178845,19.8752504 C210.056924,21.411022 209.059228,24.6857237 204.610924,25.0506531 C201.645388,25.2939394 199.063434,24.434503 196.86506,22.4723439 C197.334701,21.680614 197.825368,20.9277388 198.337059,20.2137183 Z M130.426506,4.90909091 L133.149398,4.90909091 L133.149398,25.0909091 L130.426506,25.0909091 L130.426506,4.90909091 Z M148.940093,25.0873626 L139.956144,10.0216123 L139.956144,25.0909091 L137.233735,25.0909091 L137.233735,4.90909091 L139.956144,4.90909091 L139.956144,4.91515011 L148.940093,20.3945255 L148.940093,4.90909091 L151.662501,4.90909091 L151.662501,25.0852453 L151.665896,25.091094 L148.94221,25.0909142 L148.940093,25.0909091 L148.940093,25.0873626 Z M159.138275,18.0875481 L158.17631,19.2358179 L158.17631,25.0909091 L155.477108,25.0909091 L155.477108,18.3330034 L155.437192,18.2994555 L155.477108,18.2518081 L155.477108,4.90909091 L158.17631,4.90909091 L158.17631,15.0298489 L164.613172,7.34635263 L166.680881,9.08415771 L161.225394,15.5962142 L166.324982,25.0912469 L163.003352,25.0769209 L159.138275,18.0875481 Z M191.126818,12.5728972 L186.878015,25.0909091 L183.522544,25.0909091 L179.186435,12.315673 L179.186435,25.0908372 L176.443373,25.0908372 L176.443373,4.90909091 L179.186435,4.90909091 L179.526326,4.90916284 L185.200279,21.4206493 L190.874233,4.90916284 L191.126818,4.90916284 L193.86988,4.90909091 L193.86988,25.0908372 L191.126818,25.0908372 L191.126818,12.5728972 Z" id="Combined-Shape" fill="#FFFFFF"></path>
                <path d="M216.46988,16.9090909 L216.46988,25.0909091 L213.746988,25.0909091 L213.746988,4.90909091 L214.904217,4.90909091 L214.427711,4.90909091 L220.009639,4.90909091 C223.318024,4.90909091 226,7.59538241 226,10.9090909 C226,14.2227994 223.318024,16.9090909 220.009639,16.9090909 L216.46988,16.9090909 Z M216.46988,14.1818182 L220.009639,14.1818182 C221.814212,14.1818182 223.277108,12.7165683 223.277108,10.9090909 C223.277108,9.10161355 221.814212,7.63636364 220.009639,7.63636364 L216.46988,7.63636364 L216.46988,14.1818182 L216.46988,14.1818182 Z" id="Combined-Shape" fill="#FFFFFF"></path>
            </g>
        </g>
    </g>
</svg>