<?xml version="1.0" encoding="UTF-8"?>
<svg width="260px" height="32px" viewBox="0 0 260 32" version="1.1" xmlns="http://www.w3.org/2000/svg" xmlns:xlink="http://www.w3.org/1999/xlink">
    <!-- Generator: Sketch 47.1 (45422) - http://www.bohemiancoding.com/sketch -->
    <title>MSP</title>
    <desc>Created with Sketch.</desc>
    <defs>
        <linearGradient x1="7.28762649%" y1="23.4959584%" x2="72.8895899%" y2="85.1434359%" id="linearGradient-1">
            <stop stop-color="#43EEF8" offset="0%"></stop>
            <stop stop-color="#1776EB" offset="100%"></stop>
        </linearGradient>
        <linearGradient x1="100%" y1="25.769097%" x2="0%" y2="74.8132049%" id="linearGradient-2">
            <stop stop-color="#39B1F7" offset="0%"></stop>
            <stop stop-color="#0848BB" offset="100%"></stop>
        </linearGradient>
    </defs>
    <g id="Page-1" stroke="none" stroke-width="1" fill="none" fill-rule="evenodd">
        <g id="Artboard-Copy-2" transform="translate(-88.000000, -603.000000)">
            <g id="MSP" transform="translate(88.000000, 603.000000)">
                <polygon id="Combined-Shape-Copy-2" fill="url(#linearGradient-1)" points="27.8442938 23.9579243 27.8503302 23.954463 27.8503302 7.98482099 13.9251651 0 0 7.98482099 9.05086631e-15 23.954463 13.9251651 31.9392839 22.1129791 27.2443141 17.5400596 24.9020078 13.8875596 26.9963857 4.23992227 21.4643395 4.23992227 10.400247 13.8875596 4.8682007 23.535197 10.400247 23.535197 21.4643395 23.5305315 21.4670147 27.8442938 23.9579243"></polygon>
                <polygon id="Combined-Shape-Copy-3" fill="url(#linearGradient-2)" points="17.0041944 6.63953026 14.6580685 7.98482099 14.6580685 23.954463 28.5832336 31.9392839 42.5083987 23.954463 42.5083987 7.98482099 28.5832336 0 23.0180377 3.1911358 27.1781456 5.65232809 28.5456281 4.8682007 38.1932655 10.400247 38.1932655 21.4643395 28.5456281 26.9963857 18.8979908 21.4643395 18.8979908 10.400247 21.2262828 9.06518238"></polygon>
                <path d="M66.5772222,7.13281706 L65.0663953,9.64976473 C63.9040135,8.70371803 62.4720175,8.14545455 60.9231774,8.14545455 C57.0358739,8.14545455 53.8845917,11.6620543 53.8845917,16 C53.8845917,20.3379457 57.0358739,23.8545455 60.9231774,23.8545455 C62.9599962,23.8545455 64.7947467,22.8890931 66.079992,21.3459023 L68.1298992,23.4389403 C66.3145263,25.4876643 63.7568929,26.7636364 60.9231774,26.7636364 C55.4161641,26.7636364 50.9518477,21.9445922 50.9518477,16 C50.9518477,10.0554078 55.4161641,5.23636364 60.9231774,5.23636364 C63.0225874,5.23636364 64.9704598,5.93672662 66.5772222,7.13281706 Z M92.8779395,26.7636364 C87.7323526,26.7636364 83.5610302,21.9445922 83.5610302,16 C83.5610302,10.0554078 87.7323526,5.23636364 92.8779395,5.23636364 C98.0235264,5.23636364 102.194849,10.0554078 102.194849,16 C102.194849,21.9445922 98.0235264,26.7636364 92.8779395,26.7636364 Z M92.8779395,23.8545455 C96.4155305,23.8545455 99.2833147,20.3379457 99.2833147,16 C99.2833147,11.6620543 96.4155305,8.14545455 92.8779395,8.14545455 C89.3403485,8.14545455 86.4725644,11.6620543 86.4725644,16 C86.4725644,20.3379457 89.3403485,23.8545455 92.8779395,23.8545455 Z M105.106383,19.2 L108.017917,19.2 C108.017917,21.7706345 110.103578,23.8545455 112.676372,23.8545455 C115.249165,23.8545455 117.334826,21.7706345 117.334826,19.2 L120.246361,19.2 C120.246361,23.377281 116.857161,26.7636364 112.676372,26.7636364 C108.495582,26.7636364 105.106383,23.377281 105.106383,19.2 Z M105.106383,5.23636364 L108.017917,5.23636364 L108.017917,19.2 L105.106383,19.2 L105.106383,5.23636364 Z M117.334826,5.23636364 L120.246361,5.23636364 L120.246361,19.2 L117.334826,19.2 L117.334826,5.23636364 Z M73.9403045,23.8628156 L73.9403045,23.8628156 L83.2698768,23.8628156 L83.2698768,26.7636364 L72.7633708,26.7636364 L71.0239534,26.8543571 L71.0251818,5.29747741 L73.940017,5.29747741 L73.9403045,23.8628156 Z M145.563757,5.29747741 L145.564045,23.8628156 L154.893617,23.8628156 L154.893617,26.7636364 L144.387111,26.7636364 L142.647694,26.8543571 L142.648922,5.29747741 L145.563757,5.29747741 Z M230.420564,21.5612995 C234.013808,24.8664231 237.256208,24.1467085 238.43439,23.3108583 C239.612572,22.4750081 241.979969,19.3762456 236.172561,17.5361005 C230.365153,15.6959554 229.771746,13.1976913 229.599852,12.357712 C229.427957,11.5177326 228.994738,6.79907815 234.013808,5.4869347 C237.650635,4.75769083 240.460774,5.62020085 242.444226,8.07446476 L240.689009,9.90507963 C239.382485,8.75729136 237.950786,8.14708641 236.393912,8.07446476 C232.697288,7.83729324 232.093612,10.5580794 232.904133,11.8604113 C233.688504,13.3105408 235.797455,13.9133856 239.361295,15.3430826 C243.082752,16.9158087 243.21312,19.5621107 243.082752,21.2002671 C242.952384,22.8384234 241.885567,26.3314386 237.129084,26.7206967 C233.958095,26.9802021 231.197262,26.0634699 228.846585,23.9705001 C229.348763,23.1259882 229.873422,22.3229214 230.420564,21.5612995 Z M157.805151,5.23636364 L160.716685,5.23636364 L160.716685,26.7636364 L157.805151,26.7636364 L157.805151,5.23636364 Z M177.601363,26.7598535 L167.995004,10.6897198 L167.995004,26.7636364 L165.083987,26.7636364 L165.083987,5.23636364 L167.995004,5.23636364 L167.995004,5.24282678 L177.601363,21.7541605 L177.601363,5.23636364 L180.512381,5.23636364 L180.512381,26.7575949 L180.516011,26.7638336 L177.603628,26.7636419 L177.601363,26.7636364 L177.601363,26.7598535 Z M188.506079,19.2933847 L187.477468,20.5182058 L187.477468,26.7636364 L184.591265,26.7636364 L184.591265,19.5552037 L184.548583,19.5194192 L184.591265,19.4685953 L184.591265,5.23636364 L187.477468,5.23636364 L187.477468,16.0318388 L194.360278,7.83610947 L196.571238,9.68976822 L190.737794,16.6359618 L196.190682,26.7639967 L192.638929,26.7487156 L188.506079,19.2933847 Z M222.710796,13.4110903 L218.167634,26.7636364 L214.579696,26.7636364 L209.943179,13.1367179 L209.943179,26.7635596 L207.010078,26.7635596 L207.010078,5.23636364 L209.943179,5.23636364 L210.306618,5.23644036 L216.373665,22.8486925 L222.440711,5.23644036 L222.710796,5.23644036 L225.643897,5.23636364 L225.643897,26.7635596 L222.710796,26.7635596 L222.710796,13.4110903 Z" id="Combined-Shape" fill="#FFFFFF"></path>
                <path d="M127.525196,26.7380094 L127.525196,26.7636364 L124.613662,26.7636364 L124.613662,5.23636364 L127.525196,5.23636364 L127.525196,5.26199007 C127.772733,5.24499913 128.022569,5.23636364 128.274423,5.23636364 C134.224008,5.23636364 139.047099,10.0554078 139.047099,16 C139.047099,21.9445922 134.224008,26.7636364 128.274423,26.7636364 C128.022569,26.7636364 127.772733,26.7550009 127.525196,26.7380101 L127.525196,26.7380094 Z M127.525196,8.18066481 L127.525196,23.8193354 C127.771799,23.8426316 128.021718,23.8545455 128.274423,23.8545455 C132.616012,23.8545455 136.135565,20.3379457 136.135565,16 C136.135565,11.6620543 132.616012,8.14545455 128.274423,8.14545455 C128.021718,8.14545455 127.771799,8.1573684 127.525196,8.18066461 L127.525196,8.18066481 Z" id="Combined-Shape" fill="#FFFFFF"></path>
                <path d="M249.80963,18.0363636 L249.80963,26.7636364 L246.898096,26.7636364 L246.898096,5.23636364 L248.135498,5.23636364 L247.62598,5.23636364 L253.594625,5.23636364 C257.132216,5.23636364 260,8.10174124 260,11.6363636 C260,15.170986 257.132216,18.0363636 253.594625,18.0363636 L249.80963,18.0363636 Z M249.80963,15.1272727 L253.594625,15.1272727 C255.52422,15.1272727 257.088466,13.5643395 257.088466,11.6363636 C257.088466,9.70838778 255.52422,8.14545455 253.594625,8.14545455 L249.80963,8.14545455 L249.80963,15.1272727 L249.80963,15.1272727 Z" id="Combined-Shape" fill="#FFFFFF"></path>
            </g>
        </g>
    </g>
</svg>